<?xml version="1.0" encoding="utf-8"?>
<!-- Generator: Adobe Illustrator 19.1.0, SVG Export Plug-In . SVG Version: 6.00 Build 0)  -->
<svg version="1.1" id="Ebene_1" xmlns="http://www.w3.org/2000/svg" xmlns:xlink="http://www.w3.org/1999/xlink" x="0px" y="0px"
	 width="500px" height="500px" viewBox="0 0 500 500" enable-background="new 0 0 500 500" xml:space="preserve">
<rect display="none" fill="#AFC60D" width="500" height="500"/>
<path fill="#B0C70D" d="M167,381h-35c-5.5,0-10-4.5-10-10V132.7c0-5.5,4.5-10,10-10h35c5.5,0,10,4.5,10,10V371
	C177,376.5,172.5,381,167,381z"/>
<g>
	<polygon fill="#B0C70D" points="254.6,322.4 254.6,298 239.4,322.4 	"/>
	<path fill="#B0C70D" d="M337,297.2c-8,0-11.2,7.4-11.2,19.2s3.2,19.3,11.2,19.3s11.2-7.5,11.2-19.3S345,297.2,337,297.2z"/>
	<path fill="#B0C70D" d="M294,257.5l-1-58.7l-99,60v112.1c0,5.6,4.5,10.1,10.1,10.1h179.6c5.7,0,10.4-4.7,10.4-10.4V198.9L294,257.5
		z M280,337.5h-8.1v12.2h-17.3v-12.2h-31.9v-13.4L248,283h23.9v39.4h8.1V337.5z M295.3,350.8c-5.1,0-9.5-4.3-9.5-9.4
		c0-5,4.4-9.3,9.5-9.3s9.4,4.3,9.4,9.3C304.7,346.5,300.4,350.8,295.3,350.8z M337,350.9c-19.5,0-28.6-16.9-28.6-34.5
		S317.5,282,337,282s28.6,16.8,28.6,34.4S356.5,350.9,337,350.9z"/>
</g>
</svg>
